<?xml version="1.0" encoding="UTF-8" standalone="no"?><svg xmlns="http://www.w3.org/2000/svg" xmlns:xlink="http://www.w3.org/1999/xlink" contentScriptType="application/ecmascript" contentStyleType="text/css" height="3766px" preserveAspectRatio="none" style="width:1002px;height:3766px;background:#FFFFFF;" version="1.1" viewBox="0 0 1002 3766" width="1002px" zoomAndPan="magnify"><defs><filter height="300%" id="f1bu2858j5ounn" width="300%" x="-1" y="-1"><feGaussianBlur result="blurOut" stdDeviation="2.0"/><feColorMatrix in="blurOut" result="blurOut2" type="matrix" values="0 0 0 0 0 0 0 0 0 0 0 0 0 0 0 0 0 0 .4 0"/><feOffset dx="4.0" dy="4.0" in="blurOut2" result="blurOut3"/><feBlend in="SourceGraphic" in2="blurOut3" mode="normal"/></filter></defs><g><rect fill="#FFFFCC" filter="url(#f1bu2858j5ounn)" height="37.6094" rx="12.5" ry="12.5" style="stroke:#A80036;stroke-width:1.5;" width="57" x="10" y="1863.5"/><text fill="#000000" font-family="sans-serif" font-size="14" lengthAdjust="spacing" textLength="37" x="20" y="1888.0332">React</text><rect fill="#FFCCFF" filter="url(#f1bu2858j5ounn)" height="37.6094" rx="12.5" ry="12.5" style="stroke:#A80036;stroke-width:1.5;" width="76" x="117" y="682.5078"/><text fill="#000000" font-family="sans-serif" font-size="14" lengthAdjust="spacing" textLength="56" x="127" y="707.041">核心概念</text><rect fill="#33CC33" filter="url(#f1bu2858j5ounn)" height="37.6094" rx="12.5" ry="12.5" style="stroke:#A80036;stroke-width:1.5;" width="43" x="243" y="20"/><text fill="#000000" font-family="sans-serif" font-size="14" lengthAdjust="spacing" textLength="23" x="253" y="44.5332">JSX</text><path d="M193,701.3125 L203,701.3125 C218,701.3125 218,38.8047 233,38.8047 L243,38.8047 " fill="none" style="stroke:#A80036;stroke-width:1.0;"/><rect fill="#33CC33" filter="url(#f1bu2858j5ounn)" height="37.6094" rx="12.5" ry="12.5" style="stroke:#A80036;stroke-width:1.5;" width="76" x="243" y="77.6094"/><text fill="#000000" font-family="sans-serif" font-size="14" lengthAdjust="spacing" textLength="56" x="253" y="102.1426">元素渲染</text><rect fill="#3399FF" filter="url(#f1bu2858j5ounn)" height="37.6094" rx="12.5" ry="12.5" style="stroke:#A80036;stroke-width:1.5;" width="188" x="369" y="77.6094"/><text fill="#000000" font-family="sans-serif" font-size="14" lengthAdjust="spacing" textLength="168" x="379" y="102.1426">只会更新实际改变了的内容</text><path d="M319,96.4141 L329,96.4141 C344,96.4141 344,96.4141 359,96.4141 L369,96.4141 " fill="none" style="stroke:#A80036;stroke-width:1.0;"/><path d="M193,701.3125 L203,701.3125 C218,701.3125 218,96.4141 233,96.4141 L243,96.4141 " fill="none" style="stroke:#A80036;stroke-width:1.0;"/><rect fill="#33CC33" filter="url(#f1bu2858j5ounn)" height="37.6094" rx="12.5" ry="12.5" style="stroke:#A80036;stroke-width:1.5;" width="48" x="243" y="365.6563"/><text fill="#000000" font-family="sans-serif" font-size="14" lengthAdjust="spacing" textLength="28" x="253" y="390.1895">组件</text><rect fill="#3399FF" filter="url(#f1bu2858j5ounn)" height="37.6094" rx="12.5" ry="12.5" style="stroke:#A80036;stroke-width:1.5;" width="76" x="341" y="135.2188"/><text fill="#000000" font-family="sans-serif" font-size="14" lengthAdjust="spacing" textLength="56" x="351" y="159.752">函数组件</text><path d="M291,384.4609 L301,384.4609 C316,384.4609 316,154.0234 331,154.0234 L341,154.0234 " fill="none" style="stroke:#A80036;stroke-width:1.0;"/><rect fill="#3399FF" filter="url(#f1bu2858j5ounn)" height="37.6094" rx="12.5" ry="12.5" style="stroke:#A80036;stroke-width:1.5;" width="62" x="341" y="192.8281"/><text fill="#000000" font-family="sans-serif" font-size="14" lengthAdjust="spacing" textLength="42" x="351" y="217.3613">类组件</text><path d="M291,384.4609 L301,384.4609 C316,384.4609 316,211.6328 331,211.6328 L341,211.6328 " fill="none" style="stroke:#A80036;stroke-width:1.0;"/><rect fill="#3399FF" filter="url(#f1bu2858j5ounn)" height="37.6094" rx="12.5" ry="12.5" style="stroke:#A80036;stroke-width:1.5;" width="76" x="341" y="250.4375"/><text fill="#000000" font-family="sans-serif" font-size="14" lengthAdjust="spacing" textLength="56" x="351" y="274.9707">组件渲染</text><path d="M291,384.4609 L301,384.4609 C316,384.4609 316,269.2422 331,269.2422 L341,269.2422 " fill="none" style="stroke:#A80036;stroke-width:1.0;"/><rect fill="#3399FF" filter="url(#f1bu2858j5ounn)" height="37.6094" rx="12.5" ry="12.5" style="stroke:#A80036;stroke-width:1.5;" width="76" x="341" y="308.0469"/><text fill="#000000" font-family="sans-serif" font-size="14" lengthAdjust="spacing" textLength="56" x="351" y="332.5801">组合组件</text><path d="M291,384.4609 L301,384.4609 C316,384.4609 316,326.8516 331,326.8516 L341,326.8516 " fill="none" style="stroke:#A80036;stroke-width:1.0;"/><rect fill="#3399FF" filter="url(#f1bu2858j5ounn)" height="37.6094" rx="12.5" ry="12.5" style="stroke:#A80036;stroke-width:1.5;" width="61" x="341" y="365.6563"/><text fill="#000000" font-family="sans-serif" font-size="14" lengthAdjust="spacing" textLength="37" x="351" y="390.1895">Props</text><rect fill="#99CC00" filter="url(#f1bu2858j5ounn)" height="37.6094" rx="12.5" ry="12.5" style="stroke:#A80036;stroke-width:1.5;" width="62" x="452" y="365.6563"/><text fill="#000000" font-family="sans-serif" font-size="14" lengthAdjust="spacing" textLength="42" x="462" y="390.1895">只读性</text><path d="M402,384.4609 L412,384.4609 C427,384.4609 427,384.4609 442,384.4609 L452,384.4609 " fill="none" style="stroke:#A80036;stroke-width:1.0;"/><path d="M291,384.4609 L301,384.4609 C316,384.4609 316,384.4609 331,384.4609 L341,384.4609 " fill="none" style="stroke:#A80036;stroke-width:1.0;"/><rect fill="#3399FF" filter="url(#f1bu2858j5ounn)" height="37.6094" rx="12.5" ry="12.5" style="stroke:#A80036;stroke-width:1.5;" width="53" x="341" y="452.0703"/><text fill="#000000" font-family="sans-serif" font-size="14" lengthAdjust="spacing" textLength="33" x="351" y="476.6035">State</text><rect fill="#99CC00" filter="url(#f1bu2858j5ounn)" height="37.6094" rx="12.5" ry="12.5" style="stroke:#A80036;stroke-width:1.5;" width="48" x="444" y="423.2656"/><text fill="#000000" font-family="sans-serif" font-size="14" lengthAdjust="spacing" textLength="28" x="454" y="447.7988">只读</text><path d="M394,470.875 L404,470.875 C419,470.875 419,442.0703 434,442.0703 L444,442.0703 " fill="none" style="stroke:#A80036;stroke-width:1.0;"/><rect fill="#99CC00" filter="url(#f1bu2858j5ounn)" height="37.6094" rx="12.5" ry="12.5" style="stroke:#A80036;stroke-width:1.5;" width="72" x="444" y="480.875"/><text fill="#000000" font-family="sans-serif" font-size="14" lengthAdjust="spacing" textLength="52" x="454" y="505.4082">setState</text><path d="M394,470.875 L404,470.875 C419,470.875 419,499.6797 434,499.6797 L444,499.6797 " fill="none" style="stroke:#A80036;stroke-width:1.0;"/><path d="M291,384.4609 L301,384.4609 C316,384.4609 316,470.875 331,470.875 L341,470.875 " fill="none" style="stroke:#A80036;stroke-width:1.0;"/><rect fill="#3399FF" filter="url(#f1bu2858j5ounn)" height="37.6094" rx="12.5" ry="12.5" style="stroke:#A80036;stroke-width:1.5;" width="76" x="341" y="567.2891"/><text fill="#000000" font-family="sans-serif" font-size="14" lengthAdjust="spacing" textLength="56" x="351" y="591.8223">生命周期</text><rect fill="#99CC00" filter="url(#f1bu2858j5ounn)" height="37.6094" rx="12.5" ry="12.5" style="stroke:#A80036;stroke-width:1.5;" width="150" x="467" y="538.4844"/><text fill="#000000" font-family="sans-serif" font-size="14" lengthAdjust="spacing" textLength="130" x="477" y="563.0176">componentDidMount</text><path d="M417,586.0938 L427,586.0938 C442,586.0938 442,557.2891 457,557.2891 L467,557.2891 " fill="none" style="stroke:#A80036;stroke-width:1.0;"/><rect fill="#99CC00" filter="url(#f1bu2858j5ounn)" height="37.6094" rx="12.5" ry="12.5" style="stroke:#A80036;stroke-width:1.5;" width="168" x="467" y="596.0938"/><text fill="#000000" font-family="sans-serif" font-size="14" lengthAdjust="spacing" textLength="148" x="477" y="620.627">componentWillUnmount</text><path d="M417,586.0938 L427,586.0938 C442,586.0938 442,614.8984 457,614.8984 L467,614.8984 " fill="none" style="stroke:#A80036;stroke-width:1.0;"/><path d="M291,384.4609 L301,384.4609 C316,384.4609 316,586.0938 331,586.0938 L341,586.0938 " fill="none" style="stroke:#A80036;stroke-width:1.0;"/><path d="M193,701.3125 L203,701.3125 C218,701.3125 218,384.4609 233,384.4609 L243,384.4609 " fill="none" style="stroke:#A80036;stroke-width:1.0;"/><rect fill="#33CC33" filter="url(#f1bu2858j5ounn)" height="37.6094" rx="12.5" ry="12.5" style="stroke:#A80036;stroke-width:1.5;" width="76" x="243" y="711.3125"/><text fill="#000000" font-family="sans-serif" font-size="14" lengthAdjust="spacing" textLength="56" x="253" y="735.8457">事件处理</text><rect fill="#3399FF" filter="url(#f1bu2858j5ounn)" height="37.6094" rx="12.5" ry="12.5" style="stroke:#A80036;stroke-width:1.5;" width="136" x="369" y="653.7031"/><text fill="#000000" font-family="sans-serif" font-size="14" lengthAdjust="spacing" textLength="116" x="379" y="678.2363">小驼峰 camelCase</text><path d="M319,730.1172 L329,730.1172 C344,730.1172 344,672.5078 359,672.5078 L369,672.5078 " fill="none" style="stroke:#A80036;stroke-width:1.0;"/><rect fill="#3399FF" filter="url(#f1bu2858j5ounn)" height="37.6094" rx="12.5" ry="12.5" style="stroke:#A80036;stroke-width:1.5;" width="76" x="369" y="711.3125"/><text fill="#000000" font-family="sans-serif" font-size="14" lengthAdjust="spacing" textLength="56" x="379" y="735.8457">箭头函数</text><path d="M319,730.1172 L329,730.1172 C344,730.1172 344,730.1172 359,730.1172 L369,730.1172 " fill="none" style="stroke:#A80036;stroke-width:1.0;"/><rect fill="#3399FF" filter="url(#f1bu2858j5ounn)" height="37.6094" rx="12.5" ry="12.5" style="stroke:#A80036;stroke-width:1.5;" width="47" x="369" y="768.9219"/><text fill="#000000" font-family="sans-serif" font-size="14" lengthAdjust="spacing" textLength="27" x="379" y="793.4551">bind</text><path d="M319,730.1172 L329,730.1172 C344,730.1172 344,787.7266 359,787.7266 L369,787.7266 " fill="none" style="stroke:#A80036;stroke-width:1.0;"/><path d="M193,701.3125 L203,701.3125 C218,701.3125 218,730.1172 233,730.1172 L243,730.1172 " fill="none" style="stroke:#A80036;stroke-width:1.0;"/><rect fill="#33CC33" filter="url(#f1bu2858j5ounn)" height="37.6094" rx="12.5" ry="12.5" style="stroke:#A80036;stroke-width:1.5;" width="76" x="243" y="884.1406"/><text fill="#000000" font-family="sans-serif" font-size="14" lengthAdjust="spacing" textLength="56" x="253" y="908.6738">条件渲染</text><rect fill="#3399FF" filter="url(#f1bu2858j5ounn)" height="37.6094" rx="12.5" ry="12.5" style="stroke:#A80036;stroke-width:1.5;" width="31" x="369" y="826.5313"/><text fill="#000000" font-family="sans-serif" font-size="14" lengthAdjust="spacing" textLength="7" x="379" y="851.0645">if</text><path d="M319,902.9453 L329,902.9453 C344,902.9453 344,845.3359 359,845.3359 L369,845.3359 " fill="none" style="stroke:#A80036;stroke-width:1.0;"/><rect fill="#3399FF" filter="url(#f1bu2858j5ounn)" height="37.6094" rx="12.5" ry="12.5" style="stroke:#A80036;stroke-width:1.5;" width="76" x="369" y="884.1406"/><text fill="#000000" font-family="sans-serif" font-size="14" lengthAdjust="spacing" textLength="56" x="379" y="908.6738">三目运算</text><path d="M319,902.9453 L329,902.9453 C344,902.9453 344,902.9453 359,902.9453 L369,902.9453 " fill="none" style="stroke:#A80036;stroke-width:1.0;"/><rect fill="#3399FF" filter="url(#f1bu2858j5ounn)" height="37.6094" rx="12.5" ry="12.5" style="stroke:#A80036;stroke-width:1.5;" width="76" x="369" y="941.75"/><text fill="#000000" font-family="sans-serif" font-size="14" lengthAdjust="spacing" textLength="56" x="379" y="966.2832">组织渲染</text><rect fill="#99CC00" filter="url(#f1bu2858j5ounn)" height="37.6094" rx="12.5" ry="12.5" style="stroke:#A80036;stroke-width:1.5;" width="50" x="495" y="941.75"/><text fill="#000000" font-family="sans-serif" font-size="14" lengthAdjust="spacing" textLength="30" x="505" y="966.2832">warn</text><path d="M445,960.5547 L455,960.5547 C470,960.5547 470,960.5547 485,960.5547 L495,960.5547 " fill="none" style="stroke:#A80036;stroke-width:1.0;"/><path d="M319,902.9453 L329,902.9453 C344,902.9453 344,960.5547 359,960.5547 L369,960.5547 " fill="none" style="stroke:#A80036;stroke-width:1.0;"/><path d="M193,701.3125 L203,701.3125 C218,701.3125 218,902.9453 233,902.9453 L243,902.9453 " fill="none" style="stroke:#A80036;stroke-width:1.0;"/><rect fill="#33CC33" filter="url(#f1bu2858j5ounn)" height="37.6094" rx="12.5" ry="12.5" style="stroke:#A80036;stroke-width:1.5;" width="86" x="243" y="1056.9688"/><text fill="#000000" font-family="sans-serif" font-size="14" lengthAdjust="spacing" textLength="66" x="253" y="1081.502">列表和Key</text><rect fill="#3399FF" filter="url(#f1bu2858j5ounn)" height="37.6094" rx="12.5" ry="12.5" style="stroke:#A80036;stroke-width:1.5;" width="144" x="379" y="999.3594"/><text fill="#000000" font-family="sans-serif" font-size="14" lengthAdjust="spacing" textLength="124" x="389" y="1023.8926">key 放在就近的数组</text><path d="M329,1075.7734 L339,1075.7734 C354,1075.7734 354,1018.1641 369,1018.1641 L379,1018.1641 " fill="none" style="stroke:#A80036;stroke-width:1.0;"/><rect fill="#3399FF" filter="url(#f1bu2858j5ounn)" height="37.6094" rx="12.5" ry="12.5" style="stroke:#A80036;stroke-width:1.5;" width="188" x="379" y="1056.9688"/><text fill="#000000" font-family="sans-serif" font-size="14" lengthAdjust="spacing" textLength="168" x="389" y="1081.502">兄弟节点之间，可是必须的</text><path d="M329,1075.7734 L339,1075.7734 C354,1075.7734 354,1075.7734 369,1075.7734 L379,1075.7734 " fill="none" style="stroke:#A80036;stroke-width:1.0;"/><rect fill="#3399FF" filter="url(#f1bu2858j5ounn)" height="37.6094" rx="12.5" ry="12.5" style="stroke:#A80036;stroke-width:1.5;" width="154" x="379" y="1114.5781"/><text fill="#000000" font-family="sans-serif" font-size="14" lengthAdjust="spacing" textLength="134" x="389" y="1139.1113">可以在JSX中使用map</text><path d="M329,1075.7734 L339,1075.7734 C354,1075.7734 354,1133.3828 369,1133.3828 L379,1133.3828 " fill="none" style="stroke:#A80036;stroke-width:1.0;"/><path d="M193,701.3125 L203,701.3125 C218,701.3125 218,1075.7734 233,1075.7734 L243,1075.7734 " fill="none" style="stroke:#A80036;stroke-width:1.0;"/><rect fill="#33CC33" filter="url(#f1bu2858j5ounn)" height="37.6094" rx="12.5" ry="12.5" style="stroke:#A80036;stroke-width:1.5;" width="48" x="243" y="1172.1875"/><text fill="#000000" font-family="sans-serif" font-size="14" lengthAdjust="spacing" textLength="28" x="253" y="1196.7207">表单</text><rect fill="#3399FF" filter="url(#f1bu2858j5ounn)" height="37.6094" rx="12.5" ry="12.5" style="stroke:#A80036;stroke-width:1.5;" width="62" x="341" y="1172.1875"/><text fill="#000000" font-family="sans-serif" font-size="14" lengthAdjust="spacing" textLength="42" x="351" y="1196.7207">组件化</text><rect fill="#99CC00" filter="url(#f1bu2858j5ounn)" height="37.6094" rx="12.5" ry="12.5" style="stroke:#A80036;stroke-width:1.5;" width="63" x="453" y="1172.1875"/><text fill="#000000" font-family="sans-serif" font-size="14" lengthAdjust="spacing" textLength="43" x="463" y="1196.7207">Formik</text><path d="M403,1190.9922 L413,1190.9922 C428,1190.9922 428,1190.9922 443,1190.9922 L453,1190.9922 " fill="none" style="stroke:#A80036;stroke-width:1.0;"/><path d="M291,1190.9922 L301,1190.9922 C316,1190.9922 316,1190.9922 331,1190.9922 L341,1190.9922 " fill="none" style="stroke:#A80036;stroke-width:1.0;"/><path d="M193,701.3125 L203,701.3125 C218,701.3125 218,1190.9922 233,1190.9922 L243,1190.9922 " fill="none" style="stroke:#A80036;stroke-width:1.0;"/><rect fill="#33CC33" filter="url(#f1bu2858j5ounn)" height="37.6094" rx="12.5" ry="12.5" style="stroke:#A80036;stroke-width:1.5;" width="76" x="243" y="1229.7969"/><text fill="#000000" font-family="sans-serif" font-size="14" lengthAdjust="spacing" textLength="56" x="253" y="1254.3301">状态变化</text><rect fill="#3399FF" filter="url(#f1bu2858j5ounn)" height="37.6094" rx="12.5" ry="12.5" style="stroke:#A80036;stroke-width:1.5;" width="161" x="369" y="1229.7969"/><text fill="#000000" font-family="sans-serif" font-size="14" lengthAdjust="spacing" textLength="141" x="379" y="1254.3301">setState会触发Render</text><path d="M319,1248.6016 L329,1248.6016 C344,1248.6016 344,1248.6016 359,1248.6016 L369,1248.6016 " fill="none" style="stroke:#A80036;stroke-width:1.0;"/><path d="M193,701.3125 L203,701.3125 C218,701.3125 218,1248.6016 233,1248.6016 L243,1248.6016 " fill="none" style="stroke:#A80036;stroke-width:1.0;"/><rect fill="#33CC33" filter="url(#f1bu2858j5ounn)" height="37.6094" rx="12.5" ry="12.5" style="stroke:#A80036;stroke-width:1.5;" width="90" x="243" y="1316.2109"/><text fill="#000000" font-family="sans-serif" font-size="14" lengthAdjust="spacing" textLength="70" x="253" y="1340.7441">组合与继承</text><rect fill="#3399FF" filter="url(#f1bu2858j5ounn)" height="37.6094" rx="12.5" ry="12.5" style="stroke:#A80036;stroke-width:1.5;" width="48" x="383" y="1287.4063"/><text fill="#000000" font-family="sans-serif" font-size="14" lengthAdjust="spacing" textLength="28" x="393" y="1311.9395">嵌入</text><path d="M333,1335.0156 L343,1335.0156 C358,1335.0156 358,1306.2109 373,1306.2109 L383,1306.2109 " fill="none" style="stroke:#A80036;stroke-width:1.0;"/><rect fill="#3399FF" filter="url(#f1bu2858j5ounn)" height="37.6094" rx="12.5" ry="12.5" style="stroke:#A80036;stroke-width:1.5;" width="59" x="383" y="1345.0156"/><text fill="#000000" font-family="sans-serif" font-size="14" lengthAdjust="spacing" textLength="39" x="393" y="1369.5488">import</text><path d="M333,1335.0156 L343,1335.0156 C358,1335.0156 358,1363.8203 373,1363.8203 L383,1363.8203 " fill="none" style="stroke:#A80036;stroke-width:1.0;"/><path d="M193,701.3125 L203,701.3125 C218,701.3125 218,1335.0156 233,1335.0156 L243,1335.0156 " fill="none" style="stroke:#A80036;stroke-width:1.0;"/><path d="M67,1882.3047 L77,1882.3047 C92,1882.3047 92,701.3125 107,701.3125 L117,701.3125 " fill="none" style="stroke:#A80036;stroke-width:1.0;"/><rect fill="#FFCCFF" filter="url(#f1bu2858j5ounn)" height="37.6094" rx="12.5" ry="12.5" style="stroke:#A80036;stroke-width:1.5;" width="85" x="117" y="1517.8438"/><text fill="#000000" font-family="sans-serif" font-size="14" lengthAdjust="spacing" textLength="65" x="127" y="1542.377">React哲学</text><rect fill="#33CC33" filter="url(#f1bu2858j5ounn)" height="37.6094" rx="12.5" ry="12.5" style="stroke:#A80036;stroke-width:1.5;" width="76" x="252" y="1402.625"/><text fill="#000000" font-family="sans-serif" font-size="14" lengthAdjust="spacing" textLength="56" x="262" y="1427.1582">组件分层</text><path d="M202,1536.6484 L212,1536.6484 C227,1536.6484 227,1421.4297 242,1421.4297 L252,1421.4297 " fill="none" style="stroke:#A80036;stroke-width:1.0;"/><rect fill="#33CC33" filter="url(#f1bu2858j5ounn)" height="37.6094" rx="12.5" ry="12.5" style="stroke:#A80036;stroke-width:1.5;" width="151" x="252" y="1460.2344"/><text fill="#000000" font-family="sans-serif" font-size="14" lengthAdjust="spacing" textLength="131" x="262" y="1484.7676">确定State的最小表示</text><path d="M202,1536.6484 L212,1536.6484 C227,1536.6484 227,1479.0391 242,1479.0391 L252,1479.0391 " fill="none" style="stroke:#A80036;stroke-width:1.0;"/><rect fill="#33CC33" filter="url(#f1bu2858j5ounn)" height="37.6094" rx="12.5" ry="12.5" style="stroke:#A80036;stroke-width:1.5;" width="193" x="252" y="1517.8438"/><text fill="#000000" font-family="sans-serif" font-size="14" lengthAdjust="spacing" textLength="173" x="262" y="1542.377">确定那些组件可以改变State</text><path d="M202,1536.6484 L212,1536.6484 C227,1536.6484 227,1536.6484 242,1536.6484 L252,1536.6484 " fill="none" style="stroke:#A80036;stroke-width:1.0;"/><rect fill="#33CC33" filter="url(#f1bu2858j5ounn)" height="37.6094" rx="12.5" ry="12.5" style="stroke:#A80036;stroke-width:1.5;" width="90" x="252" y="1575.4531"/><text fill="#000000" font-family="sans-serif" font-size="14" lengthAdjust="spacing" textLength="70" x="262" y="1599.9863">单向数据流</text><path d="M202,1536.6484 L212,1536.6484 C227,1536.6484 227,1594.2578 242,1594.2578 L252,1594.2578 " fill="none" style="stroke:#A80036;stroke-width:1.0;"/><rect fill="#33CC33" filter="url(#f1bu2858j5ounn)" height="37.6094" rx="12.5" ry="12.5" style="stroke:#A80036;stroke-width:1.5;" width="90" x="252" y="1633.0625"/><text fill="#000000" font-family="sans-serif" font-size="14" lengthAdjust="spacing" textLength="70" x="262" y="1657.5957">反向数据流</text><rect fill="#3399FF" filter="url(#f1bu2858j5ounn)" height="37.6094" rx="12.5" ry="12.5" style="stroke:#A80036;stroke-width:1.5;" width="72" x="392" y="1633.0625"/><text fill="#000000" font-family="sans-serif" font-size="14" lengthAdjust="spacing" textLength="52" x="402" y="1657.5957">setState</text><path d="M342,1651.8672 L352,1651.8672 C367,1651.8672 367,1651.8672 382,1651.8672 L392,1651.8672 " fill="none" style="stroke:#A80036;stroke-width:1.0;"/><path d="M202,1536.6484 L212,1536.6484 C227,1536.6484 227,1651.8672 242,1651.8672 L252,1651.8672 " fill="none" style="stroke:#A80036;stroke-width:1.0;"/><path d="M67,1882.3047 L77,1882.3047 C92,1882.3047 92,1536.6484 107,1536.6484 L117,1536.6484 " fill="none" style="stroke:#A80036;stroke-width:1.0;"/><rect fill="#FFCCFF" filter="url(#f1bu2858j5ounn)" height="37.6094" rx="12.5" ry="12.5" style="stroke:#A80036;stroke-width:1.5;" width="52" x="117" y="2353.1797"/><text fill="#000000" font-family="sans-serif" font-size="14" lengthAdjust="spacing" textLength="32" x="127" y="2377.7129">Hook</text><rect fill="#33CC33" filter="url(#f1bu2858j5ounn)" height="37.6094" rx="12.5" ry="12.5" style="stroke:#A80036;stroke-width:1.5;" width="202" x="219" y="1690.6719"/><text fill="#000000" font-family="sans-serif" font-size="14" lengthAdjust="spacing" textLength="182" x="229" y="1715.2051">在组件之间复用状态逻辑很难</text><path d="M169,2371.9844 L179,2371.9844 C194,2371.9844 194,1709.4766 209,1709.4766 L219,1709.4766 " fill="none" style="stroke:#A80036;stroke-width:1.0;"/><rect fill="#33CC33" filter="url(#f1bu2858j5ounn)" height="37.6094" rx="12.5" ry="12.5" style="stroke:#A80036;stroke-width:1.5;" width="160" x="219" y="1748.2813"/><text fill="#000000" font-family="sans-serif" font-size="14" lengthAdjust="spacing" textLength="140" x="229" y="1772.8145">复杂组件变得难以理解</text><path d="M169,2371.9844 L179,2371.9844 C194,2371.9844 194,1767.0859 209,1767.0859 L219,1767.0859 " fill="none" style="stroke:#A80036;stroke-width:1.0;"/><rect fill="#33CC33" filter="url(#f1bu2858j5ounn)" height="37.6094" rx="12.5" ry="12.5" style="stroke:#A80036;stroke-width:1.5;" width="126" x="219" y="1805.8906"/><text fill="#000000" font-family="sans-serif" font-size="14" lengthAdjust="spacing" textLength="106" x="229" y="1830.4238">难以理解的 class</text><rect fill="#3399FF" filter="url(#f1bu2858j5ounn)" height="37.6094" rx="12.5" ry="12.5" style="stroke:#A80036;stroke-width:1.5;" width="42" x="395" y="1805.8906"/><text fill="#000000" font-family="sans-serif" font-size="14" lengthAdjust="spacing" textLength="22" x="405" y="1830.4238">this</text><path d="M345,1824.6953 L355,1824.6953 C370,1824.6953 370,1824.6953 385,1824.6953 L395,1824.6953 " fill="none" style="stroke:#A80036;stroke-width:1.0;"/><path d="M169,2371.9844 L179,2371.9844 C194,2371.9844 194,1824.6953 209,1824.6953 L219,1824.6953 " fill="none" style="stroke:#A80036;stroke-width:1.0;"/><rect fill="#33CC33" filter="url(#f1bu2858j5ounn)" height="37.6094" rx="12.5" ry="12.5" style="stroke:#A80036;stroke-width:1.5;" width="89" x="219" y="1978.7188"/><text fill="#000000" font-family="sans-serif" font-size="14" lengthAdjust="spacing" textLength="69" x="229" y="2003.252">State Hook</text><rect fill="#3399FF" filter="url(#f1bu2858j5ounn)" height="37.6094" rx="12.5" ry="12.5" style="stroke:#A80036;stroke-width:1.5;" width="137" x="358" y="1863.5"/><text fill="#000000" font-family="sans-serif" font-size="14" lengthAdjust="spacing" textLength="117" x="368" y="1888.0332">可以声明多个State</text><path d="M308,1997.5234 L318,1997.5234 C333,1997.5234 333,1882.3047 348,1882.3047 L358,1882.3047 " fill="none" style="stroke:#A80036;stroke-width:1.0;"/><rect fill="#3399FF" filter="url(#f1bu2858j5ounn)" height="37.6094" rx="12.5" ry="12.5" style="stroke:#A80036;stroke-width:1.5;" width="62" x="358" y="1921.1094"/><text fill="#000000" font-family="sans-serif" font-size="14" lengthAdjust="spacing" textLength="42" x="368" y="1945.6426">方括号</text><path d="M308,1997.5234 L318,1997.5234 C333,1997.5234 333,1939.9141 348,1939.9141 L358,1939.9141 " fill="none" style="stroke:#A80036;stroke-width:1.0;"/><rect fill="#3399FF" filter="url(#f1bu2858j5ounn)" height="37.6094" rx="12.5" ry="12.5" style="stroke:#A80036;stroke-width:1.5;" width="117" x="358" y="1978.7188"/><text fill="#000000" font-family="sans-serif" font-size="14" lengthAdjust="spacing" textLength="97" x="368" y="2003.252">声明 State 变量</text><path d="M308,1997.5234 L318,1997.5234 C333,1997.5234 333,1997.5234 348,1997.5234 L358,1997.5234 " fill="none" style="stroke:#A80036;stroke-width:1.0;"/><rect fill="#3399FF" filter="url(#f1bu2858j5ounn)" height="37.6094" rx="12.5" ry="12.5" style="stroke:#A80036;stroke-width:1.5;" width="117" x="358" y="2036.3281"/><text fill="#000000" font-family="sans-serif" font-size="14" lengthAdjust="spacing" textLength="97" x="368" y="2060.8613">读取 State 变量</text><path d="M308,1997.5234 L318,1997.5234 C333,1997.5234 333,2055.1328 348,2055.1328 L358,2055.1328 " fill="none" style="stroke:#A80036;stroke-width:1.0;"/><rect fill="#3399FF" filter="url(#f1bu2858j5ounn)" height="37.6094" rx="12.5" ry="12.5" style="stroke:#A80036;stroke-width:1.5;" width="117" x="358" y="2093.9375"/><text fill="#000000" font-family="sans-serif" font-size="14" lengthAdjust="spacing" textLength="97" x="368" y="2118.4707">改写 State 变量</text><path d="M308,1997.5234 L318,1997.5234 C333,1997.5234 333,2112.7422 348,2112.7422 L358,2112.7422 " fill="none" style="stroke:#A80036;stroke-width:1.0;"/><path d="M169,2371.9844 L179,2371.9844 C194,2371.9844 194,1997.5234 209,1997.5234 L219,1997.5234 " fill="none" style="stroke:#A80036;stroke-width:1.0;"/><rect fill="#33CC33" filter="url(#f1bu2858j5ounn)" height="37.6094" rx="12.5" ry="12.5" style="stroke:#A80036;stroke-width:1.5;" width="92" x="219" y="2180.3516"/><text fill="#000000" font-family="sans-serif" font-size="14" lengthAdjust="spacing" textLength="72" x="229" y="2204.8848">Effect Hook</text><rect fill="#3399FF" filter="url(#f1bu2858j5ounn)" height="37.6094" rx="12.5" ry="12.5" style="stroke:#A80036;stroke-width:1.5;" width="223" x="361" y="2151.5469"/><text fill="#000000" font-family="sans-serif" font-size="14" lengthAdjust="spacing" textLength="203" x="371" y="2176.0801">useEffect 会在每次渲染后都执行</text><path d="M311,2199.1563 L321,2199.1563 C336,2199.1563 336,2170.3516 351,2170.3516 L361,2170.3516 " fill="none" style="stroke:#A80036;stroke-width:1.0;"/><rect fill="#3399FF" filter="url(#f1bu2858j5ounn)" height="37.6094" rx="12.5" ry="12.5" style="stroke:#A80036;stroke-width:1.5;" width="230" x="361" y="2209.1563"/><text fill="#000000" font-family="sans-serif" font-size="14" lengthAdjust="spacing" textLength="210" x="371" y="2233.6895">可能需要清除，需要返回一个函数</text><path d="M311,2199.1563 L321,2199.1563 C336,2199.1563 336,2227.9609 351,2227.9609 L361,2227.9609 " fill="none" style="stroke:#A80036;stroke-width:1.0;"/><path d="M169,2371.9844 L179,2371.9844 C194,2371.9844 194,2199.1563 209,2199.1563 L219,2199.1563 " fill="none" style="stroke:#A80036;stroke-width:1.0;"/><rect fill="#33CC33" filter="url(#f1bu2858j5ounn)" height="37.6094" rx="12.5" ry="12.5" style="stroke:#A80036;stroke-width:1.5;" width="112" x="219" y="2324.375"/><text fill="#000000" font-family="sans-serif" font-size="14" lengthAdjust="spacing" textLength="92" x="229" y="2348.9082">Hook 使用规则</text><rect fill="#3399FF" filter="url(#f1bu2858j5ounn)" height="37.6094" rx="12.5" ry="12.5" style="stroke:#A80036;stroke-width:1.5;" width="196" x="381" y="2266.7656"/><text fill="#000000" font-family="sans-serif" font-size="14" lengthAdjust="spacing" textLength="176" x="391" y="2291.2988">只能在函数最外层调用 Hook</text><rect fill="#99CC00" filter="url(#f1bu2858j5ounn)" height="37.6094" rx="12.5" ry="12.5" style="stroke:#A80036;stroke-width:1.5;" width="280" x="627" y="2266.7656"/><text fill="#000000" font-family="sans-serif" font-size="14" lengthAdjust="spacing" textLength="260" x="637" y="2291.2988">不要在循环，条件或嵌套函数中调用 Hook</text><path d="M577,2285.5703 L587,2285.5703 C602,2285.5703 602,2285.5703 617,2285.5703 L627,2285.5703 " fill="none" style="stroke:#A80036;stroke-width:1.0;"/><path d="M331,2343.1797 L341,2343.1797 C356,2343.1797 356,2285.5703 371,2285.5703 L381,2285.5703 " fill="none" style="stroke:#A80036;stroke-width:1.0;"/><rect fill="#3399FF" filter="url(#f1bu2858j5ounn)" height="37.6094" rx="12.5" ry="12.5" style="stroke:#A80036;stroke-width:1.5;" width="255" x="381" y="2324.375"/><text fill="#000000" font-family="sans-serif" font-size="14" lengthAdjust="spacing" textLength="235" x="391" y="2348.9082">只能在 React 的函数组件中调用 Hook</text><rect fill="#99CC00" filter="url(#f1bu2858j5ounn)" height="37.6094" rx="12.5" ry="12.5" style="stroke:#A80036;stroke-width:1.5;" width="297" x="686" y="2324.375"/><text fill="#000000" font-family="sans-serif" font-size="14" lengthAdjust="spacing" textLength="277" x="696" y="2348.9082">不要在普通的 JavaScript 函数中调用 Hook。</text><path d="M636,2343.1797 L646,2343.1797 C661,2343.1797 661,2343.1797 676,2343.1797 L686,2343.1797 " fill="none" style="stroke:#A80036;stroke-width:1.0;"/><path d="M331,2343.1797 L341,2343.1797 C356,2343.1797 356,2343.1797 371,2343.1797 L381,2343.1797 " fill="none" style="stroke:#A80036;stroke-width:1.0;"/><rect fill="#3399FF" filter="url(#f1bu2858j5ounn)" height="37.6094" rx="12.5" ry="12.5" style="stroke:#A80036;stroke-width:1.5;" width="176" x="381" y="2381.9844"/><text fill="#000000" font-family="sans-serif" font-size="14" lengthAdjust="spacing" textLength="156" x="391" y="2406.5176">eslint-plugin-react-hooks</text><path d="M331,2343.1797 L341,2343.1797 C356,2343.1797 356,2400.7891 371,2400.7891 L381,2400.7891 " fill="none" style="stroke:#A80036;stroke-width:1.0;"/><path d="M169,2371.9844 L179,2371.9844 C194,2371.9844 194,2343.1797 209,2343.1797 L219,2343.1797 " fill="none" style="stroke:#A80036;stroke-width:1.0;"/><rect fill="#33CC33" filter="url(#f1bu2858j5ounn)" height="37.6094" rx="12.5" ry="12.5" style="stroke:#A80036;stroke-width:1.5;" width="98" x="219" y="2439.5938"/><text fill="#000000" font-family="sans-serif" font-size="14" lengthAdjust="spacing" textLength="78" x="229" y="2464.127">自定义 Hook</text><rect fill="#3399FF" filter="url(#f1bu2858j5ounn)" height="37.6094" rx="12.5" ry="12.5" style="stroke:#A80036;stroke-width:1.5;" width="229" x="367" y="2439.5938"/><text fill="#000000" font-family="sans-serif" font-size="14" lengthAdjust="spacing" textLength="209" x="377" y="2464.127">是一个函数，其名称以 “use” 开头</text><rect fill="#99CC00" filter="url(#f1bu2858j5ounn)" height="37.6094" rx="12.5" ry="12.5" style="stroke:#A80036;stroke-width:1.5;" width="224" x="646" y="2439.5938"/><text fill="#000000" font-family="sans-serif" font-size="14" lengthAdjust="spacing" textLength="204" x="656" y="2464.127">函数内部可以调用其他的 Hook。</text><path d="M596,2458.3984 L606,2458.3984 C621,2458.3984 621,2458.3984 636,2458.3984 L646,2458.3984 " fill="none" style="stroke:#A80036;stroke-width:1.0;"/><path d="M317,2458.3984 L327,2458.3984 C342,2458.3984 342,2458.3984 357,2458.3984 L367,2458.3984 " fill="none" style="stroke:#A80036;stroke-width:1.0;"/><path d="M169,2371.9844 L179,2371.9844 C194,2371.9844 194,2458.3984 209,2458.3984 L219,2458.3984 " fill="none" style="stroke:#A80036;stroke-width:1.0;"/><rect fill="#33CC33" filter="url(#f1bu2858j5ounn)" height="37.6094" rx="12.5" ry="12.5" style="stroke:#A80036;stroke-width:1.5;" width="109" x="219" y="2756.4453"/><text fill="#000000" font-family="sans-serif" font-size="14" lengthAdjust="spacing" textLength="89" x="229" y="2780.9785">Hook API 索引</text><rect fill="#3399FF" filter="url(#f1bu2858j5ounn)" height="37.6094" rx="12.5" ry="12.5" style="stroke:#A80036;stroke-width:1.5;" width="84" x="378" y="2554.8125"/><text fill="#000000" font-family="sans-serif" font-size="14" lengthAdjust="spacing" textLength="64" x="388" y="2579.3457">基础 Hook</text><rect fill="#99CC00" filter="url(#f1bu2858j5ounn)" height="37.6094" rx="12.5" ry="12.5" style="stroke:#A80036;stroke-width:1.5;" width="76" x="512" y="2497.2031"/><text fill="#000000" font-family="sans-serif" font-size="14" lengthAdjust="spacing" textLength="56" x="522" y="2521.7363">useState</text><path d="M462,2573.6172 L472,2573.6172 C487,2573.6172 487,2516.0078 502,2516.0078 L512,2516.0078 " fill="none" style="stroke:#A80036;stroke-width:1.0;"/><rect fill="#99CC00" filter="url(#f1bu2858j5ounn)" height="37.6094" rx="12.5" ry="12.5" style="stroke:#A80036;stroke-width:1.5;" width="79" x="512" y="2554.8125"/><text fill="#000000" font-family="sans-serif" font-size="14" lengthAdjust="spacing" textLength="59" x="522" y="2579.3457">useEffect</text><path d="M462,2573.6172 L472,2573.6172 C487,2573.6172 487,2573.6172 502,2573.6172 L512,2573.6172 " fill="none" style="stroke:#A80036;stroke-width:1.0;"/><rect fill="#99CC00" filter="url(#f1bu2858j5ounn)" height="37.6094" rx="12.5" ry="12.5" style="stroke:#A80036;stroke-width:1.5;" width="91" x="512" y="2612.4219"/><text fill="#000000" font-family="sans-serif" font-size="14" lengthAdjust="spacing" textLength="71" x="522" y="2636.9551">useContext</text><path d="M462,2573.6172 L472,2573.6172 C487,2573.6172 487,2631.2266 502,2631.2266 L512,2631.2266 " fill="none" style="stroke:#A80036;stroke-width:1.0;"/><path d="M328,2775.25 L338,2775.25 C353,2775.25 353,2573.6172 368,2573.6172 L378,2573.6172 " fill="none" style="stroke:#A80036;stroke-width:1.0;"/><rect fill="#3399FF" filter="url(#f1bu2858j5ounn)" height="37.6094" rx="12.5" ry="12.5" style="stroke:#A80036;stroke-width:1.5;" width="98" x="378" y="2842.8594"/><text fill="#000000" font-family="sans-serif" font-size="14" lengthAdjust="spacing" textLength="78" x="388" y="2867.3926">额外的 Hook</text><rect fill="#99CC00" filter="url(#f1bu2858j5ounn)" height="37.6094" rx="12.5" ry="12.5" style="stroke:#A80036;stroke-width:1.5;" width="97" x="526" y="2670.0313"/><text fill="#000000" font-family="sans-serif" font-size="14" lengthAdjust="spacing" textLength="77" x="536" y="2694.5645">useReducer</text><path d="M476,2861.6641 L486,2861.6641 C501,2861.6641 501,2688.8359 516,2688.8359 L526,2688.8359 " fill="none" style="stroke:#A80036;stroke-width:1.0;"/><rect fill="#99CC00" filter="url(#f1bu2858j5ounn)" height="37.6094" rx="12.5" ry="12.5" style="stroke:#A80036;stroke-width:1.5;" width="97" x="526" y="2727.6406"/><text fill="#000000" font-family="sans-serif" font-size="14" lengthAdjust="spacing" textLength="77" x="536" y="2752.1738">useCallback</text><path d="M476,2861.6641 L486,2861.6641 C501,2861.6641 501,2746.4453 516,2746.4453 L526,2746.4453 " fill="none" style="stroke:#A80036;stroke-width:1.0;"/><rect fill="#99CC00" filter="url(#f1bu2858j5ounn)" height="37.6094" rx="12.5" ry="12.5" style="stroke:#A80036;stroke-width:1.5;" width="81" x="526" y="2785.25"/><text fill="#000000" font-family="sans-serif" font-size="14" lengthAdjust="spacing" textLength="61" x="536" y="2809.7832">useMemo</text><path d="M476,2861.6641 L486,2861.6641 C501,2861.6641 501,2804.0547 516,2804.0547 L526,2804.0547 " fill="none" style="stroke:#A80036;stroke-width:1.0;"/><rect fill="#99CC00" filter="url(#f1bu2858j5ounn)" height="37.6094" rx="12.5" ry="12.5" style="stroke:#A80036;stroke-width:1.5;" width="65" x="526" y="2842.8594"/><text fill="#000000" font-family="sans-serif" font-size="14" lengthAdjust="spacing" textLength="45" x="536" y="2867.3926">useRef</text><path d="M476,2861.6641 L486,2861.6641 C501,2861.6641 501,2861.6641 516,2861.6641 L526,2861.6641 " fill="none" style="stroke:#A80036;stroke-width:1.0;"/><rect fill="#99CC00" filter="url(#f1bu2858j5ounn)" height="37.6094" rx="12.5" ry="12.5" style="stroke:#A80036;stroke-width:1.5;" width="152" x="526" y="2900.4688"/><text fill="#000000" font-family="sans-serif" font-size="14" lengthAdjust="spacing" textLength="132" x="536" y="2925.002">useImperativeHandle</text><path d="M476,2861.6641 L486,2861.6641 C501,2861.6641 501,2919.2734 516,2919.2734 L526,2919.2734 " fill="none" style="stroke:#A80036;stroke-width:1.0;"/><rect fill="#99CC00" filter="url(#f1bu2858j5ounn)" height="37.6094" rx="12.5" ry="12.5" style="stroke:#A80036;stroke-width:1.5;" width="122" x="526" y="2958.0781"/><text fill="#000000" font-family="sans-serif" font-size="14" lengthAdjust="spacing" textLength="102" x="536" y="2982.6113">useLayoutEffect</text><path d="M476,2861.6641 L486,2861.6641 C501,2861.6641 501,2976.8828 516,2976.8828 L526,2976.8828 " fill="none" style="stroke:#A80036;stroke-width:1.0;"/><rect fill="#99CC00" filter="url(#f1bu2858j5ounn)" height="37.6094" rx="12.5" ry="12.5" style="stroke:#A80036;stroke-width:1.5;" width="121" x="526" y="3015.6875"/><text fill="#000000" font-family="sans-serif" font-size="14" lengthAdjust="spacing" textLength="101" x="536" y="3040.2207">useDebugValue</text><path d="M476,2861.6641 L486,2861.6641 C501,2861.6641 501,3034.4922 516,3034.4922 L526,3034.4922 " fill="none" style="stroke:#A80036;stroke-width:1.0;"/><path d="M328,2775.25 L338,2775.25 C353,2775.25 353,2861.6641 368,2861.6641 L378,2861.6641 " fill="none" style="stroke:#A80036;stroke-width:1.0;"/><path d="M169,2371.9844 L179,2371.9844 C194,2371.9844 194,2775.25 209,2775.25 L219,2775.25 " fill="none" style="stroke:#A80036;stroke-width:1.0;"/><path d="M67,1882.3047 L77,1882.3047 C92,1882.3047 92,2371.9844 107,2371.9844 L117,2371.9844 " fill="none" style="stroke:#A80036;stroke-width:1.0;"/><rect fill="#FFCCFF" filter="url(#f1bu2858j5ounn)" height="37.6094" rx="12.5" ry="12.5" style="stroke:#A80036;stroke-width:1.5;" width="48" x="117" y="3390.1484"/><text fill="#000000" font-family="sans-serif" font-size="14" lengthAdjust="spacing" textLength="28" x="127" y="3414.6816">测试</text><rect fill="#33CC33" filter="url(#f1bu2858j5ounn)" height="37.6094" rx="12.5" ry="12.5" style="stroke:#A80036;stroke-width:1.5;" width="45" x="215" y="3390.1484"/><text fill="#000000" font-family="sans-serif" font-size="14" lengthAdjust="spacing" textLength="25" x="225" y="3414.6816">Jest</text><rect fill="#3399FF" filter="url(#f1bu2858j5ounn)" height="37.6094" rx="12.5" ry="12.5" style="stroke:#A80036;stroke-width:1.5;" width="57" x="310" y="3073.2969"/><text fill="#000000" font-family="sans-serif" font-size="14" lengthAdjust="spacing" textLength="37" x="320" y="3097.8301">jsdom</text><path d="M260,3408.9531 L270,3408.9531 C285,3408.9531 285,3092.1016 300,3092.1016 L310,3092.1016 " fill="none" style="stroke:#A80036;stroke-width:1.0;"/><rect fill="#3399FF" filter="url(#f1bu2858j5ounn)" height="37.6094" rx="12.5" ry="12.5" style="stroke:#A80036;stroke-width:1.5;" width="48" x="310" y="3130.9063"/><text fill="#000000" font-family="sans-serif" font-size="14" lengthAdjust="spacing" textLength="28" x="320" y="3155.4395">模块</text><path d="M260,3408.9531 L270,3408.9531 C285,3408.9531 285,3149.7109 300,3149.7109 L310,3149.7109 " fill="none" style="stroke:#A80036;stroke-width:1.0;"/><rect fill="#3399FF" filter="url(#f1bu2858j5ounn)" height="37.6094" rx="12.5" ry="12.5" style="stroke:#A80036;stroke-width:1.5;" width="62" x="310" y="3188.5156"/><text fill="#000000" font-family="sans-serif" font-size="14" lengthAdjust="spacing" textLength="42" x="320" y="3213.0488">计时器</text><path d="M260,3408.9531 L270,3408.9531 C285,3408.9531 285,3207.3203 300,3207.3203 L310,3207.3203 " fill="none" style="stroke:#A80036;stroke-width:1.0;"/><rect fill="#3399FF" filter="url(#f1bu2858j5ounn)" height="37.6094" rx="12.5" ry="12.5" style="stroke:#A80036;stroke-width:1.5;" width="80" x="310" y="3246.125"/><text fill="#000000" font-family="sans-serif" font-size="14" lengthAdjust="spacing" textLength="60" x="320" y="3270.6582">创建/清理</text><path d="M260,3408.9531 L270,3408.9531 C285,3408.9531 285,3264.9297 300,3264.9297 L310,3264.9297 " fill="none" style="stroke:#A80036;stroke-width:1.0;"/><rect fill="#3399FF" filter="url(#f1bu2858j5ounn)" height="37.6094" rx="12.5" ry="12.5" style="stroke:#A80036;stroke-width:1.5;" width="49" x="310" y="3303.7344"/><text fill="#000000" font-family="sans-serif" font-size="14" lengthAdjust="spacing" textLength="29" x="320" y="3328.2676">act()</text><path d="M260,3408.9531 L270,3408.9531 C285,3408.9531 285,3322.5391 300,3322.5391 L310,3322.5391 " fill="none" style="stroke:#A80036;stroke-width:1.0;"/><rect fill="#3399FF" filter="url(#f1bu2858j5ounn)" height="37.6094" rx="12.5" ry="12.5" style="stroke:#A80036;stroke-width:1.5;" width="48" x="310" y="3361.3438"/><text fill="#000000" font-family="sans-serif" font-size="14" lengthAdjust="spacing" textLength="28" x="320" y="3385.877">渲染</text><path d="M260,3408.9531 L270,3408.9531 C285,3408.9531 285,3380.1484 300,3380.1484 L310,3380.1484 " fill="none" style="stroke:#A80036;stroke-width:1.0;"/><rect fill="#3399FF" filter="url(#f1bu2858j5ounn)" height="37.6094" rx="12.5" ry="12.5" style="stroke:#A80036;stroke-width:1.5;" width="76" x="310" y="3418.9531"/><text fill="#000000" font-family="sans-serif" font-size="14" lengthAdjust="spacing" textLength="56" x="320" y="3443.4863">数据获取</text><path d="M260,3408.9531 L270,3408.9531 C285,3408.9531 285,3437.7578 300,3437.7578 L310,3437.7578 " fill="none" style="stroke:#A80036;stroke-width:1.0;"/><rect fill="#3399FF" filter="url(#f1bu2858j5ounn)" height="37.6094" rx="12.5" ry="12.5" style="stroke:#A80036;stroke-width:1.5;" width="85" x="310" y="3476.5625"/><text fill="#000000" font-family="sans-serif" font-size="14" lengthAdjust="spacing" textLength="65" x="320" y="3501.0957">mock 模块</text><path d="M260,3408.9531 L270,3408.9531 C285,3408.9531 285,3495.3672 300,3495.3672 L310,3495.3672 " fill="none" style="stroke:#A80036;stroke-width:1.0;"/><rect fill="#3399FF" filter="url(#f1bu2858j5ounn)" height="37.6094" rx="12.5" ry="12.5" style="stroke:#A80036;stroke-width:1.5;" width="48" x="310" y="3534.1719"/><text fill="#000000" font-family="sans-serif" font-size="14" lengthAdjust="spacing" textLength="28" x="320" y="3558.7051">事件</text><path d="M260,3408.9531 L270,3408.9531 C285,3408.9531 285,3552.9766 300,3552.9766 L310,3552.9766 " fill="none" style="stroke:#A80036;stroke-width:1.0;"/><rect fill="#3399FF" filter="url(#f1bu2858j5ounn)" height="37.6094" rx="12.5" ry="12.5" style="stroke:#A80036;stroke-width:1.5;" width="62" x="310" y="3591.7813"/><text fill="#000000" font-family="sans-serif" font-size="14" lengthAdjust="spacing" textLength="42" x="320" y="3616.3145">计时器</text><path d="M260,3408.9531 L270,3408.9531 C285,3408.9531 285,3610.5859 300,3610.5859 L310,3610.5859 " fill="none" style="stroke:#A80036;stroke-width:1.0;"/><rect fill="#3399FF" filter="url(#f1bu2858j5ounn)" height="37.6094" rx="12.5" ry="12.5" style="stroke:#A80036;stroke-width:1.5;" width="76" x="310" y="3649.3906"/><text fill="#000000" font-family="sans-serif" font-size="14" lengthAdjust="spacing" textLength="56" x="320" y="3673.9238">快照测试</text><path d="M260,3408.9531 L270,3408.9531 C285,3408.9531 285,3668.1953 300,3668.1953 L310,3668.1953 " fill="none" style="stroke:#A80036;stroke-width:1.0;"/><rect fill="#3399FF" filter="url(#f1bu2858j5ounn)" height="37.6094" rx="12.5" ry="12.5" style="stroke:#A80036;stroke-width:1.5;" width="76" x="310" y="3707"/><text fill="#000000" font-family="sans-serif" font-size="14" lengthAdjust="spacing" textLength="56" x="320" y="3731.5332">多渲染器</text><path d="M260,3408.9531 L270,3408.9531 C285,3408.9531 285,3725.8047 300,3725.8047 L310,3725.8047 " fill="none" style="stroke:#A80036;stroke-width:1.0;"/><path d="M165,3408.9531 L175,3408.9531 C190,3408.9531 190,3408.9531 205,3408.9531 L215,3408.9531 " fill="none" style="stroke:#A80036;stroke-width:1.0;"/><path d="M67,1882.3047 L77,1882.3047 C92,1882.3047 92,3408.9531 107,3408.9531 L117,3408.9531 " fill="none" style="stroke:#A80036;stroke-width:1.0;"/><!--MD5=[029fc02d84fe6ed77ea27546fd63a197]
@startmindmap
<style>
mindmapDiagram {
    node {
        BackgroundColor lightGreen
    }
    :depth(0) {
        BackGroundColor #ffffcc
    }
    :depth(1) {
        BackGroundColor #ffccff
    }
    :depth(2) {
        BackGroundColor #33cc33
    }
    :depth(3) {
        BackGroundColor #3399ff
    }
    :depth(4) {
        BackGroundColor #99cc00
    }
    :depth(5) {
        BackGroundColor #999966
    }
    boxless {
        FontColor darkgreen
    }
}
</style>
* React
** 核心概念
*** JSX
*** 元素渲染
**** 只会更新实际改变了的内容
*** 组件
**** 函数组件
**** 类组件
**** 组件渲染
**** 组合组件
**** Props 
***** 只读性
**** State
***** 只读
***** setState
**** 生命周期
***** componentDidMount
***** componentWillUnmount
*** 事件处理
**** 小驼峰 camelCase
**** 箭头函数
**** bind
*** 条件渲染
**** if 
**** 三目运算
**** 组织渲染
***** warn
*** 列表和Key
**** key 放在就近的数组
**** 兄弟节点之间，可是必须的
**** 可以在JSX中使用map
*** 表单
**** 组件化
***** Formik
*** 状态变化
**** setState会触发Render
*** 组合与继承
**** 嵌入
**** import
** React哲学
*** 组件分层
*** 确定State的最小表示
*** 确定那些组件可以改变State
*** 单向数据流
*** 反向数据流
**** setState
** Hook
*** 在组件之间复用状态逻辑很难
*** 复杂组件变得难以理解
*** 难以理解的 class
**** this
*** State Hook
**** 可以声明多个State
**** 方括号
**** 声明 State 变量
**** 读取 State 变量
**** 改写 State 变量
*** Effect Hook
**** useEffect 会在每次渲染后都执行
**** 可能需要清除，需要返回一个函数
*** Hook 使用规则
**** 只能在函数最外层调用 Hook
***** 不要在循环，条件或嵌套函数中调用 Hook
**** 只能在 React 的函数组件中调用 Hook
***** 不要在普通的 JavaScript 函数中调用 Hook。
****  eslint-plugin-react-hooks
*** 自定义 Hook
**** 是一个函数，其名称以 “use” 开头
***** 函数内部可以调用其他的 Hook。
*** Hook API 索引
**** 基础 Hook
***** useState
***** useEffect
***** useContext
**** 额外的 Hook
***** useReducer
***** useCallback
***** useMemo
***** useRef
***** useImperativeHandle
***** useLayoutEffect
***** useDebugValue
** 测试
*** Jest
**** jsdom
**** 模块
**** 计时器
**** 创建/清理
**** act()
**** 渲染
**** 数据获取
**** mock 模块
**** 事件
**** 计时器
**** 快照测试
**** 多渲染器

@endmindmap

PlantUML version 1.2021.7(Sun May 23 05:40:07 PDT 2021)
(GPL source distribution)
Java Runtime: OpenJDK Runtime Environment
JVM: OpenJDK 64-Bit Server VM
Default Encoding: Cp1252
Language: zh
Country: CN
--></g></svg>